<svg xmlns="http://www.w3.org/2000/svg" xmlns:xlink="http://www.w3.org/1999/xlink" viewBox="0 0 1024 1024"><defs><style>.cls-1{fill:url(#linear-gradient);}.cls-2{fill:url(#linear-gradient-2);}.cls-3{fill:url(#linear-gradient-3);}.cls-4{fill:url(#linear-gradient-4);}.cls-5{fill:url(#linear-gradient-5);}.cls-6{fill:url(#linear-gradient-6);}.cls-7{fill:url(#linear-gradient-7);}.cls-8{fill:#fff;}</style><linearGradient id="linear-gradient" x1="467.73" y1="1018" x2="556.54" y2="2.95" gradientUnits="userSpaceOnUse"><stop offset="0" stop-color="#0057d9"/><stop offset="1" stop-color="#1e8ef4"/></linearGradient><linearGradient id="linear-gradient-2" x1="293.49" y1="237.29" x2="507.33" y2="795.97" gradientUnits="userSpaceOnUse"><stop offset="0" stop-color="#fff"/><stop offset="1" stop-color="#e8f0fc"/></linearGradient><linearGradient id="linear-gradient-3" x1="279.75" y1="827.91" x2="523.75" y2="146.45" gradientUnits="userSpaceOnUse"><stop offset="0" stop-color="#a8c8f4"/><stop offset="1" stop-color="#cbe3fb"/></linearGradient><linearGradient id="linear-gradient-4" x1="571.8" y1="150.37" x2="508.14" y2="877.97" gradientUnits="userSpaceOnUse"><stop offset="0" stop-color="#b4d6fa"/><stop offset="1" stop-color="#639cea"/></linearGradient><linearGradient id="linear-gradient-5" x1="461.56" y1="141.95" x2="498.36" y2="874.5" gradientUnits="userSpaceOnUse"><stop offset="0" stop-color="#fff"/><stop offset="1" stop-color="#bed5f6"/></linearGradient><linearGradient id="linear-gradient-6" x1="583.02" y1="147.92" x2="528.42" y2="697.21" gradientUnits="userSpaceOnUse"><stop offset="0" stop-color="#fff"/><stop offset="1" stop-color="#f5f5f5"/></linearGradient><linearGradient id="linear-gradient-7" x1="494.96" y1="142.09" x2="440.72" y2="698.42" gradientUnits="userSpaceOnUse"><stop offset="0" stop-color="#fff"/><stop offset="1" stop-color="#e6f0fc"/></linearGradient></defs><title>C - iOS - iPadOS</title><g id="C_-_iOS_iPadOS" data-name="C - iOS / iPadOS"><rect id="BG" class="cls-1" width="1024" height="1024" rx="224"/><g id="Plane"><path id="Background" class="cls-2" d="M836.82,817.22,591,704.5a6,6,0,0,0-8.16,3.44L519.54,885.6a8,8,0,0,1-15.08,0L441.2,707.94a6,6,0,0,0-8.15-3.44L187.19,817.22A10,10,0,0,1,174,803.8L499.38,127a14,14,0,0,1,25.24,0L850,803.8A10,10,0,0,1,836.82,817.22Z"/><path class="cls-3" d="M499.51,126.77,438.33,704.64a6,6,0,0,0-5.29-.14L187.19,817.22A10,10,0,0,1,174,803.8L499.38,127C499.42,126.93,499.46,126.85,499.51,126.77Z"/><path class="cls-4" d="M585.67,704.64a5.85,5.85,0,0,0-2.13,1.86,5.73,5.73,0,0,0-.71,1.37l0,.07L519.53,885.61a7.85,7.85,0,0,1-7.53,5.31V121.08l12.49,5.67Z"/><path class="cls-5" d="M512,121.08V890.92a7.85,7.85,0,0,1-7.5-5.21s-63.31-177.77-63.31-177.77a6.11,6.11,0,0,0-.74-1.44,6,6,0,0,0-2.12-1.86l61.18-577.89Z"/><path class="cls-6" d="M589.49,704.05a6,6,0,0,0-6,2.45L522.61,134.36l3.38-1.73Z"/><path class="cls-7" d="M501.38,134.36,440.45,706.5a6,6,0,0,0-2.12-1.86,5.93,5.93,0,0,0-3.83-.59L498,132.63Z"/><g id="Nose"><path class="cls-8" d="M499.88,140.1A133.19,133.19,0,0,1,507.09,156c3.72,10.91,4.75,23.67,4.91,30.82.15-7.15,1.18-19.91,4.91-30.82a133.83,133.83,0,0,1,7.2-15.85Z"/><circle class="cls-8" cx="512" cy="133.08" r="14"/></g></g></g></svg>